<svg width="1091" height="80" viewBox="0 0 1091 80" fill="none" xmlns="http://www.w3.org/2000/svg">
<g clip-path="url(#clip0_245_29)">
<path d="M-103 19.115L-79.1963 30.5363C-43.7771 47.5309 -2.46119 47.0488 32.5518 29.2325L34.0214 28.4847C69.1775 10.5955 110.784 10.6705 145.876 28.6862V28.6862C181.106 46.7732 222.894 46.7732 258.124 28.6862V28.6862C293.216 10.6705 335.376 10.877 370.532 28.7661V28.7661C405.648 46.6352 447.953 46.7427 483.005 28.7472V28.7472C518.025 10.7684 559.763 10.7075 594.75 28.75V28.75C629.737 46.7925 671.444 46.7475 706.464 28.7687V28.7687C741.546 10.7576 783.672 10.8211 818.787 28.7687V28.7687C853.847 46.6886 895.755 46.7969 930.75 28.75V28.75C965.745 10.7031 1007.29 10.6277 1042.35 28.5476L1053.1 34.0392C1082.8 49.2186 1116.81 53.7476 1149.44 46.8697L1177 41.0619V80H-103V19.115Z" fill="url(#paint0_linear_245_29)" fill-opacity="0.4"/>
</g>
<defs>
<linearGradient id="paint0_linear_245_29" x1="537" y1="0" x2="537" y2="80" gradientUnits="userSpaceOnUse">
<stop stop-color="#FAE9D6"/>
<stop offset="1" stop-color="#FFDFB8"/>
</linearGradient>
<clipPath id="clip0_245_29">
<rect width="1091" height="80" fill="white"/>
</clipPath>
</defs>
</svg>
