<svg width="1091" height="80" viewBox="0 0 1091 80" fill="none" xmlns="http://www.w3.org/2000/svg">
<g clip-path="url(#clip0_247_40)">
<path d="M1194 60.885L1170.2 49.4637C1134.78 32.4691 1093.46 32.9512 1058.45 50.7675L1056.98 51.5153C1021.82 69.4045 980.216 69.3295 945.124 51.3138V51.3138C909.894 33.2268 868.106 33.2268 832.876 51.3138V51.3138C797.784 69.3295 755.624 69.123 720.468 51.2339V51.2339C685.352 33.3648 643.047 33.2573 607.995 51.2528V51.2528C572.975 69.2316 531.237 69.2925 496.25 51.25V51.25C461.263 33.2075 419.556 33.2525 384.536 51.2313V51.2313C349.454 69.2424 307.328 69.1789 272.213 51.2313V51.2313C237.153 33.3114 195.245 33.2031 160.25 51.25V51.25C125.255 69.2969 83.7067 69.3723 48.6461 51.4524L37.9015 45.9608C8.20275 30.7814 -25.8054 26.2524 -58.4416 33.1303L-86 38.9381V0H1194V60.885Z" fill="url(#paint0_linear_247_40)" fill-opacity="0.4"/>
</g>
<defs>
<linearGradient id="paint0_linear_247_40" x1="554" y1="80" x2="554" y2="0" gradientUnits="userSpaceOnUse">
<stop stop-color="#FAE9D6"/>
<stop offset="1" stop-color="#FFDFB8"/>
</linearGradient>
<clipPath id="clip0_247_40">
<rect width="1091" height="80" fill="white" transform="matrix(-1 0 0 -1 1091 80)"/>
</clipPath>
</defs>
</svg>
